<?xml version="1.0" encoding="UTF-8"?>
<!DOCTYPE svg PUBLIC "-//W3C//DTD SVG 1.1//EN" "http://www.w3.org/Graphics/SVG/1.1/DTD/svg11.dtd">
<svg xmlns="http://www.w3.org/2000/svg" version="1.1" width="1200px" height="675px" style="shape-rendering:geometricPrecision; text-rendering:geometricPrecision; image-rendering:optimizeQuality; fill-rule:evenodd; clip-rule:evenodd" xmlns:xlink="http://www.w3.org/1999/xlink">
<g><path style="opacity:0.885" fill="#000000" d="M 120.5,230.5 C 140.146,227.402 156.812,232.902 170.5,247C 200.074,243.927 221.24,255.76 234,282.5C 237.134,294.123 237.301,305.79 234.5,317.5C 249.635,337.968 251.468,359.635 240,382.5C 231.548,395.235 219.881,403.569 205,407.5C 198.157,426.342 184.99,438.175 165.5,443C 144.621,447.204 126.954,441.704 112.5,426.5C 101.285,429.051 90.4518,427.718 80,422.5C 79.6667,422.833 79.3333,423.167 79,423.5C 54.7,409.232 44.3666,388.898 48,362.5C 49.0569,360.781 49.8903,358.947 50.5,357C 37.9236,343.249 33.4236,327.082 37,308.5C 41.0405,295.582 48.2072,284.749 58.5,276C 64.7593,272.028 71.426,269.028 78.5,267C 86.5144,247.811 100.514,235.644 120.5,230.5 Z M 128.5,245.5 C 138.23,245.401 146.897,248.235 154.5,254C 140.916,261.923 127.249,269.756 113.5,277.5C 112.472,279.361 110.972,280.695 109,281.5C 108.578,302.331 108.245,322.998 108,343.5C 102.835,339.916 97.5015,336.583 92,333.5C 91.3333,316.167 91.3333,298.833 92,281.5C 95.5227,260.476 107.689,248.476 128.5,245.5 Z M 172.5,262.5 C 201.245,260.421 217.578,273.588 221.5,302C 221,303.5 220.5,305 220,306.5C 206.218,298.697 192.718,290.53 179.5,282C 177.863,281.399 176.197,280.899 174.5,280.5C 156.269,289.952 138.269,299.952 120.5,310.5C 119.167,304.167 119.167,297.833 120.5,291.5C 137.637,281.27 154.97,271.604 172.5,262.5 Z M 75.5,284.5 C 76.3316,301.995 76.8316,319.662 77,337.5C 94.628,348.396 112.461,358.896 130.5,369C 125.299,372.432 119.966,375.599 114.5,378.5C 99.1667,369.833 83.8333,361.167 68.5,352.5C 49.5777,335.551 47.0777,316.551 61,295.5C 65.6324,291.449 70.4657,287.782 75.5,284.5 Z M 168.5,295.5 C 183.88,303.666 199.213,312.166 214.5,321C 230.326,332.757 235.493,348.257 230,367.5C 225.726,377.76 218.559,385.093 208.5,389.5C 207.975,371.419 207.141,353.419 206,335.5C 188.582,325.207 171.082,315.04 153.5,305C 158.903,302.308 163.903,299.142 168.5,295.5 Z M 141.5,311.5 C 148.908,315.378 156.241,319.545 163.5,324C 164.147,327.249 164.481,330.582 164.5,334C 164.111,339.331 163.944,344.498 164,349.5C 156.937,354.216 149.604,358.549 142,362.5C 134.88,357.935 127.547,353.602 120,349.5C 119.333,341.167 119.333,332.833 120,324.5C 127.48,320.518 134.646,316.185 141.5,311.5 Z M 176.5,331.5 C 181.721,334.362 186.888,337.362 192,340.5C 192.667,357.833 192.667,375.167 192,392.5C 188.427,414.236 175.594,426.236 153.5,428.5C 145.081,428.481 137.414,426.147 130.5,421.5C 129.289,420.726 129.289,419.893 130.5,419C 143.77,411.695 157.103,404.362 170.5,397C 173.135,395.039 174.969,392.539 176,389.5C 176.5,370.17 176.667,350.836 176.5,331.5 Z M 162.5,363.5 C 163.239,363.369 163.906,363.536 164.5,364C 164.741,369.99 164.408,376.157 163.5,382.5C 146.593,392.787 129.26,402.287 111.5,411C 83.0198,413.691 66.6865,400.858 62.5,372.5C 63.2458,371.264 63.5792,369.93 63.5,368.5C 65.3084,368.491 66.9751,368.991 68.5,370C 73.9632,373.142 79.1299,376.642 84,380.5C 84.3333,380.167 84.6667,379.833 85,379.5C 92.7347,385.202 101.068,389.868 110,393.5C 127.922,384.126 145.422,374.126 162.5,363.5 Z"/></g>
<g><path style="opacity:0.937" fill="#000000" d="M 368.5,230.5 C 379.172,230.333 389.839,230.5 400.5,231C 434.266,237.769 453.766,258.269 459,292.5C 459.667,309.5 459.667,326.5 459,343.5C 453.685,377.481 434.185,397.647 400.5,404C 370.348,409.601 344.848,401.434 324,379.5C 321.083,375.334 318.416,371.001 316,366.5C 314.322,361.105 312.655,355.771 311,350.5C 309.408,330.538 309.075,310.538 310,290.5C 315.826,257.174 335.326,237.174 368.5,230.5 Z M 377.5,256.5 C 404.293,253.829 420.459,265.496 426,291.5C 426.667,308.833 426.667,326.167 426,343.5C 423.375,362.791 412.541,374.291 393.5,378C 366.027,382.373 349.193,371.207 343,344.5C 342.333,326.5 342.333,308.5 343,290.5C 346.66,270.669 358.16,259.335 377.5,256.5 Z"/></g>
<g><path style="opacity:0.928" fill="#000000" d="M 949.5,232.5 C 959.839,232.334 970.172,232.5 980.5,233C 981.428,233.388 982.095,234.055 982.5,235C 1002.72,290.841 1022.39,346.674 1041.5,402.5C 1031.15,402.832 1020.81,402.499 1010.5,401.5C 1006.26,389.753 1002.26,377.92 998.5,366C 976.167,365.333 953.833,365.333 931.5,366C 927.5,378 923.5,390 919.5,402C 909.172,402.5 898.839,402.666 888.5,402.5C 888.814,399.053 889.648,395.72 891,392.5C 903.384,359.997 914.884,327.497 925.5,295C 933.601,274.194 941.601,253.361 949.5,232.5 Z M 964.5,260.5 C 973.364,287.03 982.03,313.363 990.5,339.5C 973.5,340.833 956.5,340.833 939.5,339.5C 948.597,313.457 956.93,287.123 964.5,260.5 Z"/></g>
<g><path style="opacity:0.914" fill="#000000" d="M 1059.5,232.5 C 1093.5,232.333 1127.5,232.5 1161.5,233C 1162.48,241.415 1162.82,249.915 1162.5,258.5C 1150.01,258.021 1137.67,258.521 1125.5,260C 1126.5,298.761 1126.83,337.594 1126.5,376.5C 1138.5,376.5 1150.5,376.5 1162.5,376.5C 1162.5,385.167 1162.5,393.833 1162.5,402.5C 1127.83,402.5 1093.17,402.5 1058.5,402.5C 1058.5,393.833 1058.5,385.167 1058.5,376.5C 1070.17,376.5 1081.83,376.5 1093.5,376.5C 1093.5,337.167 1093.5,297.833 1093.5,258.5C 1081.83,258.5 1070.17,258.5 1058.5,258.5C 1058.2,249.749 1058.53,241.082 1059.5,232.5 Z"/></g>
<g><path style="opacity:0.942" fill="#000000" d="M 543.5,274.5 C 570.477,271.973 589.477,282.806 600.5,307C 601.708,310.75 602.542,314.584 603,318.5C 603.906,334.873 603.573,351.206 602,367.5C 595.74,386.303 583.074,398.636 564,404.5C 556.939,404.475 549.772,404.308 542.5,404C 530.581,402.375 521.414,396.541 515,386.5C 514.5,405.497 514.333,424.497 514.5,443.5C 504.167,443.5 493.833,443.5 483.5,443.5C 483.5,387.833 483.5,332.167 483.5,276.5C 493.172,276.334 502.839,276.5 512.5,277C 513.309,282.417 513.809,287.917 514,293.5C 521.004,282.678 530.837,276.344 543.5,274.5 Z M 537.5,299.5 C 540.641,300.089 543.641,300.089 546.5,299.5C 560.864,300.698 569.364,308.365 572,322.5C 572.9,335.548 572.567,348.548 571,361.5C 564.596,376.121 553.429,381.955 537.5,379C 523.989,375.822 516.489,367.322 515,353.5C 514.144,342.123 514.478,330.79 516,319.5C 519.551,308.777 526.718,302.11 537.5,299.5 Z"/></g>
<g><path style="opacity:0.927" fill="#000000" d="M 669.5,274.5 C 690.881,271.374 709.048,277.374 724,292.5C 729.061,298.686 732.394,305.686 734,313.5C 735.37,325.786 735.87,338.12 735.5,350.5C 707.831,350.333 680.165,350.5 652.5,351C 653.749,376.901 667.083,386.901 692.5,381C 700.619,377.376 707.452,372.209 713,365.5C 719.249,369.041 725.416,372.707 731.5,376.5C 731.833,377 732.167,377.5 732.5,378C 720.775,395.616 704.275,404.782 683,405.5C 664.609,406.17 648.942,400.17 636,387.5C 628.692,379.213 624.358,369.546 623,358.5C 621.553,341.948 622.553,325.615 626,309.5C 633.984,289.608 648.484,277.941 669.5,274.5 Z M 675.5,295.5 C 697.622,295.29 708.289,306.29 707.5,328.5C 689.164,328.667 670.83,328.5 652.5,328C 652.484,317.95 655.818,308.95 662.5,301C 666.717,298.549 671.05,296.715 675.5,295.5 Z"/></g>
<g><path style="opacity:0.931" fill="#000000" d="M 813.5,274.5 C 848.117,271.211 866.284,286.878 868,321.5C 868.667,347.833 868.667,374.167 868,400.5C 857.758,402.462 847.258,403.128 836.5,402.5C 836.95,373.463 836.45,344.463 835,315.5C 830.277,305.748 822.777,301.082 812.5,301.5C 801.562,301.079 793.728,305.745 789,315.5C 787.541,344.458 787.041,373.458 787.5,402.5C 777.167,402.5 766.833,402.5 756.5,402.5C 756.5,360.5 756.5,318.5 756.5,276.5C 766.172,276.334 775.839,276.5 785.5,277C 786.309,282.417 786.809,287.917 787,293.5C 788.963,288.587 792.13,284.587 796.5,281.5C 801.858,278.165 807.524,275.832 813.5,274.5 Z"/></g>
</svg>
