<svg xmlns="http://www.w3.org/2000/svg" viewBox="0 0 512 512" fill="currentColor">
  <path d="M256 0c141.4 0 256 114.6 256 256v16c0 13.3-10.7 24-24 24H448c-13.3 0-24-10.7-24-24V256c0-92.8-75.2-168-168-168S88 163.2 88 256v16c0 13.3-10.7 24-24 24H24c-13.3 0-24-10.7-24-24V256C0 114.6 114.6 0 256 0zM48 320h48c26.5 0 48 21.5 48 48v80c0 26.5-21.5 48-48 48H48c-26.5 0-48-21.5-48-48V368c0-26.5 21.5-48 48-48zm368 0h48c26.5 0 48 21.5 48 48v80c0 26.5-21.5 48-48 48H416c-26.5 0-48-21.5-48-48V368c0-26.5 21.5-48 48-48z"/>
</svg>