<svg xmlns="http://www.w3.org/2000/svg" viewBox="0 0 512 512" fill="currentColor">
  <path d="M32 96c-17.7 0-32 14.3-32 32s14.3 32 32 32H68.1l97.9 128L68.1 416H32c-17.7 0-32 14.3-32 32s14.3 32 32 32H96c11.9 0 23-6.1 29.6-16.2l94.4-146.9 94.4 146.9c6.7 10.1 17.7 16.2 29.6 16.2H448v32c0 17.7 14.3 32 32 32s32-14.3 32-32V384c0-17.7-14.3-32-32-32H380.1l-68.4-106.3 68.4-106.3H448v32c0 17.7 14.3 32 32 32s32-14.3 32-32V96c0-17.7-14.3-32-32-32H346.4c-11.9 0-23 6.1-29.6 16.2L222.4 227.1 128 351.3 33.6 227.1c-6.7-10.1-17.7-16.2-29.6-16.2zM448 384c0 17.7-14.3 32-32 32H380.1l-68.4 106.3c-10.7 16.6-33.8 17.9-46.2 2.6s-10-36.8 4.7-47.5L327.9 416H256c-17.7 0-32-14.3-32-32s14.3-32 32-32h71.9l-57.6-61.7c-12.1-13-11.2-33.3 2-45.2s33.3-11.2 45.2 2L416 345.9V304c0-17.7 14.3-32 32-32s32 14.3 32 32v80z"/>
</svg>